<svg width="512" height="512" viewBox="0 0 512 512" fill="none" xmlns="http://www.w3.org/2000/svg">
<rect width="512" height="512" rx="256" fill="white"/>
<path d="M298.913 168.049C270.397 191.081 245.538 209.909 243.71 209.909C241.882 209.909 226.893 200.403 210.624 188.522C194.173 176.823 179.55 166.952 177.904 166.587C176.259 166.038 172.603 167.684 169.862 170.243C165.84 173.533 164.926 175.544 165.84 179.017C166.754 182.855 232.559 248.478 239.323 252.499C240.602 253.23 243.344 253.23 245.355 252.499C247.365 251.585 270.214 230.93 296.171 206.253C369.471 136.792 366.912 139.534 365.449 134.598C363.804 129.297 359.417 125.824 354.664 126.007C352.471 126.007 327.611 144.834 298.913 168.049Z" fill="#1BDE98"/>
<path d="M145.733 189.801C138.056 192.909 137.507 196.382 138.238 250.671C138.97 306.057 138.787 305.143 149.389 321.046C153.41 327.078 163.098 334.39 192.345 353.766C213.183 367.475 234.387 380.637 239.323 382.83C250.29 388.131 262.172 388.314 272.225 383.744C287.945 376.615 349.181 335.487 358.32 325.982C373.126 310.627 373.675 307.702 373.675 247.564C373.675 219.231 372.944 195.285 372.212 194.188C369.471 189.984 363.073 187.974 358.32 189.801C355.761 190.715 332.912 205.339 307.504 222.338C282.096 239.338 257.419 255.424 252.849 257.983C243.892 263.284 235.301 264.198 228.721 260.908C226.527 259.811 208.613 242.811 188.872 223.435C169.313 203.876 153.08 188.378 151.399 188.156C148.968 187.693 147.926 188.888 145.733 189.801Z" fill="#193156"/>
</svg>
